<?xml version="1.0" standalone="no"?>
<!DOCTYPE svg PUBLIC "-//W3C//DTD SVG 20010904//EN"
 "http://www.w3.org/TR/2001/REC-SVG-20010904/DTD/svg10.dtd">
<svg version="1.0" xmlns="http://www.w3.org/2000/svg"
 width="178.000000pt" height="173.000000pt" viewBox="0 0 178.000000 173.000000"
 preserveAspectRatio="xMidYMid meet">
<metadata>
Created by potrace 1.10, written by Peter Selinger 2001-2011
</metadata>
<g transform="translate(0.000000,173.000000) scale(0.100000,-0.100000)"
fill="#ffebb9" stroke="none">
<path d="M722 1658 c-25 -25 -7 -68 28 -68 20 0 60 -41 60 -61 0 -38 52 -53
70 -20 13 25 4 49 -23 57 -28 8 -67 44 -67 60 0 16 -28 44 -44 44 -6 0 -17 -5
-24 -12z m38 -28 c0 -5 -7 -10 -15 -10 -8 0 -15 5 -15 10 0 6 7 10 15 10 8 0
15 -4 15 -10z m98 -101 c-2 -6 -8 -10 -13 -10 -5 0 -11 4 -13 10 -2 6 4 11 13
11 9 0 15 -5 13 -11z"/>
<path d="M916 1654 c-9 -8 -16 -19 -16 -24 0 -13 30 -40 44 -40 6 0 32 -20 56
-45 l44 -45 -49 -50 c-47 -48 -52 -50 -102 -50 -29 0 -62 6 -73 12 -26 17 -55
-1 -55 -33 0 -18 6 -25 24 -27 13 -2 28 1 34 7 6 6 41 11 77 11 l66 0 64 65
64 65 -57 58 c-31 32 -57 64 -57 73 0 18 -19 39 -36 39 -7 0 -20 -7 -28 -16z
m39 -24 c3 -5 -1 -10 -9 -10 -9 0 -16 5 -16 10 0 6 4 10 9 10 6 0 13 -4 16
-10z m-145 -245 c0 -8 -4 -15 -9 -15 -13 0 -22 16 -14 24 11 11 23 6 23 -9z"/>
<path d="M572 1608 c-15 -15 -16 -45 -2 -53 6 -4 10 -71 10 -168 l0 -163 68
-67 68 -67 114 0 115 0 93 -93 92 -92 0 -232 c0 -144 -4 -234 -10 -238 -30
-18 4 -71 39 -60 26 8 34 34 18 59 -12 17 -14 67 -11 251 l4 229 -107 108
-108 108 -115 0 -116 0 -52 53 -53 54 3 159 c2 87 7 166 11 175 5 11 2 22 -8
33 -19 19 -37 20 -53 4z m38 -27 c0 -6 -4 -13 -10 -16 -5 -3 -10 1 -10 9 0 9
5 16 10 16 6 0 10 -4 10 -9z m550 -1171 c0 -5 -7 -10 -15 -10 -8 0 -15 5 -15
10 0 6 7 10 15 10 8 0 15 -4 15 -10z"/>
<path d="M1162 1608 c-15 -15 -16 -45 -2 -53 6 -3 10 -23 10 -43 0 -34 -9 -46
-93 -130 l-92 -92 -72 0 c-40 0 -83 5 -97 11 -20 9 -29 9 -41 -1 -36 -30 6
-87 45 -62 11 7 53 12 98 12 l77 0 103 103 c97 97 102 105 102 144 0 23 5 45
10 48 24 15 4 75 -25 75 -6 0 -16 -5 -23 -12z m36 -29 c-2 -6 -8 -10 -13 -10
-5 0 -11 4 -13 10 -2 6 4 11 13 11 9 0 15 -5 13 -11z m-388 -307 c0 -13 -12
-22 -22 -16 -10 6 -1 24 13 24 5 0 9 -4 9 -8z"/>
<path d="M1310 1521 c-7 -15 -8 -27 0 -40 5 -11 10 -53 10 -93 0 -71 -1 -75
-35 -108 l-35 -34 0 -160 c-1 -120 -4 -166 -14 -179 -28 -36 15 -85 49 -57 17
14 20 46 5 55 -6 4 -10 69 -10 164 l0 157 40 39 c40 39 40 39 40 117 0 45 5
87 12 98 10 15 10 25 2 38 -16 25 -51 27 -64 3z m40 -16 c0 -8 -4 -15 -10 -15
-5 0 -10 7 -10 15 0 8 5 15 10 15 6 0 10 -7 10 -15z m-70 -626 c0 -5 -7 -9
-15 -9 -15 0 -20 12 -9 23 8 8 24 -1 24 -14z"/>
<path d="M332 1438 c-25 -25 -7 -68 28 -68 9 0 28 -13 43 -28 21 -22 27 -38
27 -73 0 -41 5 -49 55 -99 30 -30 55 -62 55 -72 0 -25 33 -40 55 -25 23 17 16
61 -10 65 -11 2 -41 25 -67 50 -44 42 -48 51 -48 92 0 40 -5 51 -35 80 -19 19
-35 42 -35 52 0 9 -9 22 -19 28 -25 13 -34 13 -49 -2z m38 -28 c0 -5 -4 -10
-10 -10 -5 0 -10 5 -10 10 0 6 5 10 10 10 6 0 10 -4 10 -10z m220 -311 c0 -5
-7 -9 -15 -9 -15 0 -20 12 -9 23 8 8 24 -1 24 -14z"/>
<path d="M1467 1413 c-11 -10 -8 -51 3 -58 28 -17 -19 -88 -64 -97 -47 -8 -45
-69 3 -76 16 -3 25 4 35 30 8 18 26 44 40 57 15 14 26 36 26 50 0 14 7 34 15
45 10 13 11 24 4 37 -9 18 -49 26 -62 12z m43 -28 c0 -8 -4 -15 -9 -15 -13 0
-22 16 -14 24 11 11 23 6 23 -9z m-92 -166 c-2 -6 -8 -10 -13 -10 -5 0 -11 4
-13 10 -2 6 4 11 13 11 9 0 15 -5 13 -11z"/>
<path d="M1132 1308 c-7 -7 -12 -20 -12 -29 0 -9 -7 -22 -15 -29 -9 -8 -15
-30 -15 -60 0 -30 6 -52 15 -60 8 -7 15 -21 15 -31 0 -22 32 -41 54 -33 39 15
26 70 -17 76 -18 2 -23 11 -25 46 -3 38 -1 43 25 53 44 16 53 38 27 63 -19 19
-36 20 -52 4z m38 -28 c0 -5 -7 -10 -16 -10 -8 0 -12 5 -9 10 3 6 10 10 16 10
5 0 9 -4 9 -10z m0 -175 c0 -8 -4 -15 -9 -15 -13 0 -22 16 -14 24 11 11 23 6
23 -9z"/>
<path d="M226 1274 c-9 -8 -16 -21 -16 -28 0 -17 21 -36 40 -36 8 0 71 -56
140 -125 l125 -125 185 0 186 0 67 -68 67 -68 0 -131 c0 -77 -4 -134 -10 -138
-15 -9 -12 -41 5 -55 24 -20 55 -3 55 30 0 16 -4 32 -10 35 -6 4 -10 63 -10
143 l0 137 -78 78 -77 77 -185 0 -185 0 -118 118 c-64 64 -117 123 -117 129 0
13 -27 43 -40 43 -5 0 -16 -7 -24 -16z m34 -24 c0 -5 -4 -10 -10 -10 -5 0 -10
5 -10 10 0 6 5 10 10 10 6 0 10 -4 10 -10z m790 -721 c0 -5 -7 -9 -15 -9 -15
0 -20 12 -9 23 8 8 24 -1 24 -14z"/>
<path d="M1562 1268 c-7 -7 -12 -19 -12 -27 0 -9 -43 -56 -95 -106 l-95 -90 0
-120 0 -121 -60 -59 -60 -59 0 -173 c0 -121 -4 -179 -12 -193 -16 -25 -1 -54
30 -58 27 -4 47 30 32 57 -6 11 -10 91 -10 188 l0 169 60 59 60 59 0 121 0
120 83 82 c46 45 94 83 110 87 22 5 27 12 27 35 0 37 -33 54 -58 29z m38 -28
c0 -5 -7 -10 -15 -10 -8 0 -15 5 -15 10 0 6 7 10 15 10 8 0 15 -4 15 -10z
m-330 -945 c0 -8 -4 -15 -9 -15 -13 0 -22 16 -14 24 11 11 23 6 23 -9z"/>
<path d="M1640 1110 c-11 -11 -20 -26 -20 -33 0 -7 -29 -42 -65 -77 -53 -53
-65 -70 -65 -97 0 -17 -4 -35 -10 -38 -17 -11 -11 -44 11 -55 15 -9 24 -8 35
1 16 13 19 55 4 64 -5 3 -10 14 -10 23 0 22 128 149 155 154 29 5 33 53 6 68
-17 8 -24 7 -41 -10z m32 -25 c0 -5 -5 -11 -11 -13 -6 -2 -11 4 -11 13 0 9 5
15 11 13 6 -2 11 -8 11 -13z m-152 -246 c0 -5 -7 -9 -15 -9 -15 0 -20 12 -9
23 8 8 24 -1 24 -14z"/>
<path d="M174 1106 c-10 -26 0 -51 22 -54 11 -2 72 -54 134 -117 l115 -115
158 0 c87 0 167 -4 177 -10 37 -20 69 14 50 51 -11 20 -45 26 -55 9 -4 -6 -69
-10 -163 -10 l-157 0 -107 108 c-58 59 -108 116 -110 127 -4 25 -55 34 -64 11z
m44 -24 c2 -7 -3 -12 -12 -12 -9 0 -16 7 -16 16 0 17 22 14 28 -4z m589 -248
c-9 -9 -28 6 -21 18 4 6 10 6 17 -1 6 -6 8 -13 4 -17z"/>
<path d="M1665 936 c-8 -19 -19 -37 -25 -41 -5 -3 -10 -40 -10 -81 l0 -74 -73
0 -73 0 -61 -62 -62 -63 -3 -185 c-2 -102 -7 -192 -11 -201 -10 -20 18 -51 41
-47 26 5 39 35 24 58 -8 14 -12 72 -12 193 l0 173 53 52 53 52 81 0 82 0 3 87
c3 83 4 87 27 93 51 12 53 71 2 78 -16 3 -25 -5 -36 -32z m50 -6 c3 -5 -1 -10
-9 -10 -9 0 -16 5 -16 10 0 6 4 10 9 10 6 0 13 -4 16 -10z m-325 -710 c0 -5
-4 -10 -10 -10 -5 0 -10 5 -10 10 0 6 5 10 10 10 6 0 10 -4 10 -10z"/>
<path d="M112 948 c-15 -15 -16 -45 -2 -53 6 -3 10 -36 10 -73 l0 -68 55 -54
c30 -29 55 -63 57 -74 2 -16 10 -21 33 -21 25 0 31 4 33 27 2 19 -3 30 -17 38
-12 6 -21 7 -21 3 0 -4 -22 15 -50 42 -49 48 -50 51 -50 108 0 32 5 67 11 78
8 16 7 25 -7 40 -20 22 -35 24 -52 7z m36 -29 c-2 -6 -8 -10 -13 -10 -5 0 -11
4 -13 10 -2 6 4 11 13 11 9 0 15 -5 13 -11z m130 -280 c-2 -6 -8 -10 -13 -10
-5 0 -11 4 -13 10 -2 6 4 11 13 11 9 0 15 -5 13 -11z"/>
<path d="M250 831 c-17 -32 1 -57 36 -50 11 2 333 -324 328 -332 -3 -5 5 -18
16 -29 16 -16 24 -18 40 -10 31 17 26 58 -7 66 -33 7 -343 310 -343 334 0 39
-52 54 -70 21z m42 -16 c0 -5 -5 -11 -11 -13 -6 -2 -11 4 -11 13 0 9 5 15 11
13 6 -2 11 -8 11 -13z m378 -376 c0 -5 -7 -9 -15 -9 -15 0 -20 12 -9 23 8 8
24 -1 24 -14z"/>
<path d="M534 746 c-15 -40 30 -76 59 -47 6 6 24 11 39 11 24 0 28 -4 28 -30
0 -16 -5 -40 -11 -54 -9 -20 -9 -29 1 -41 30 -36 87 6 62 45 -6 11 -12 40 -12
65 l0 45 -49 0 c-28 0 -53 5 -56 10 -9 15 -55 12 -61 -4z m38 -21 c0 -5 -5
-11 -11 -13 -6 -2 -11 4 -11 13 0 9 5 15 11 13 6 -2 11 -8 11 -13z m120 -120
c0 -5 -5 -11 -11 -13 -6 -2 -11 4 -11 13 0 9 5 15 11 13 6 -2 11 -8 11 -13z"/>
<path d="M887 754 c-10 -11 -8 -52 3 -59 6 -4 10 -93 10 -233 l0 -227 -92 -92
-93 -93 81 0 c44 0 85 -5 91 -11 6 -6 21 -9 34 -7 19 2 24 9 24 33 0 24 -5 31
-24 33 -13 2 -28 -1 -34 -7 -13 -13 -77 -15 -77 -3 0 4 27 34 60 67 l60 59 0
236 c0 156 4 240 11 247 20 20 6 58 -21 61 -14 2 -29 0 -33 -4z m35 -29 c0 -5
-5 -11 -11 -13 -6 -2 -11 4 -11 13 0 9 5 15 11 13 6 -2 11 -8 11 -13z m0 -660
c0 -5 -5 -11 -11 -13 -6 -2 -11 4 -11 13 0 9 5 15 11 13 6 -2 11 -8 11 -13z"/>
<path d="M767 713 c-11 -10 -8 -51 3 -58 6 -4 10 -81 10 -198 l0 -193 -48 -47
c-26 -26 -55 -47 -63 -47 -38 0 -53 -52 -19 -70 25 -13 60 3 60 28 0 10 25 42
55 72 l55 54 0 201 c0 132 4 205 11 212 17 17 -7 53 -35 53 -12 0 -26 -3 -29
-7z m43 -28 c0 -8 -4 -15 -9 -15 -13 0 -22 16 -14 24 11 11 23 6 23 -9z m-130
-555 c0 -5 -4 -10 -10 -10 -5 0 -10 5 -10 10 0 6 5 10 10 10 6 0 10 -4 10 -10z"/>
<path d="M1630 640 c-8 -5 -33 -10 -56 -10 -32 0 -46 -6 -72 -33 -31 -32 -32
-36 -32 -114 0 -57 4 -84 14 -92 8 -7 17 -23 20 -36 12 -46 81 -39 74 8 -3 20
-16 30 -50 41 -27 8 -26 146 0 169 22 20 74 22 102 5 37 -23 77 24 50 57 -14
17 -29 19 -50 5z m31 -33 c-1 -12 -15 -9 -19 4 -3 6 1 10 8 8 6 -3 11 -8 11
-12z m-101 -247 c0 -5 -7 -10 -15 -10 -8 0 -15 5 -15 10 0 6 7 10 15 10 8 0
15 -4 15 -10z"/>
<path d="M372 528 c-22 -22 -13 -47 21 -62 17 -8 75 -57 127 -110 l94 -95 -23
-25 c-13 -13 -34 -27 -47 -30 -32 -8 -35 -61 -4 -71 24 -8 50 10 50 33 0 9 17
33 37 54 l37 38 -110 113 c-61 61 -116 124 -122 140 -12 28 -39 36 -60 15z
m38 -23 c0 -8 -4 -15 -9 -15 -13 0 -22 16 -14 24 11 11 23 6 23 -9z m160 -335
c0 -5 -7 -10 -15 -10 -8 0 -15 5 -15 10 0 6 7 10 15 10 8 0 15 -4 15 -10z"/>
<path d="M210 481 c-8 -17 -7 -24 10 -41 11 -11 24 -19 29 -16 11 7 129 -115
133 -138 5 -28 34 -44 55 -30 26 16 23 58 -3 62 -26 4 -151 130 -156 157 -5
29 -53 33 -68 6z m42 -16 c0 -5 -5 -11 -11 -13 -6 -2 -11 4 -11 13 0 9 5 15
11 13 6 -2 11 -8 11 -13z m180 -180 c0 -5 -5 -11 -11 -13 -6 -2 -11 4 -11 13
0 9 5 15 11 13 6 -2 11 -8 11 -13z"/>
<path d="M1010 235 c0 -87 -4 -142 -12 -154 -23 -38 34 -70 62 -36 10 12 10
21 1 41 -6 14 -11 66 -11 117 l0 91 75 -74 c41 -41 75 -82 75 -91 0 -24 26
-42 50 -34 30 10 28 63 -3 70 -13 4 -68 51 -123 106 -54 54 -102 99 -106 99
-5 0 -8 -61 -8 -135z m240 -105 c0 -5 -7 -10 -15 -10 -8 0 -15 5 -15 10 0 6 7
10 15 10 8 0 15 -4 15 -10z m-210 -65 c0 -8 -4 -15 -10 -15 -5 0 -10 7 -10 15
0 8 5 15 10 15 6 0 10 -7 10 -15z"/>
</g>
</svg>
